<svg xmlns="http://www.w3.org/2000/svg" viewBox="0 0 600 600">
  <defs>
    <style>
      .a {
        fill: #5f5fff;
      }

      .b {
        fill: #fff;
      }
    </style>
  </defs>
  <title>Bot--Verified</title>
  <polygon class="a" points="570 300 592.48 366.76 543.26 417.15 534.55 487.05 468.34 511.1 430.17 570.29 360.08 563.23 300 600 239.92 563.23 169.84 570.29 131.66 511.1 65.45 487.05 56.74 417.15 7.52 366.76 30 300 7.52 233.24 56.74 182.85 65.45 112.95 131.66 88.91 169.84 29.71 239.92 36.77 300 0 360.08 36.77 430.17 29.71 468.34 88.91 534.55 112.95 543.26 182.85 592.48 233.24 570 300"/>
  <polygon class="b" points="262.45 372.64 200.43 310.63 179.31 331.6 262.45 414.73 440.91 236.27 419.94 215.3 262.45 372.64"/>
</svg>
